<svg version="1.1" id="Layer_1" xmlns="http://www.w3.org/2000/svg" xmlns:xlink="http://www.w3.org/1999/xlink" x="0px" y="0px"
	 width="100%" viewBox="0 0 688 688" enable-background="new 0 0 688 688" xml:space="preserve">
<path fill="#000000" opacity="1.000000" stroke="none" 
	d="
M219.453217,382.453094 
	C212.842072,389.062988 206.416687,395.360504 200.147797,401.810059 
	C196.453293,405.611053 192.237595,407.468903 186.835693,407.430084 
	C165.348160,407.275635 143.858887,407.379761 122.370338,407.341095 
	C112.166916,407.322754 106.130264,402.507080 105.481293,392.313446 
	C104.720795,380.367981 104.941582,368.347473 105.042221,356.362091 
	C105.361794,318.303925 101.695396,332.172363 121.858391,300.595459 
	C127.682556,291.474304 133.799728,282.540558 139.651688,273.436737 
	C143.475220,267.488525 148.536026,264.514954 155.823257,264.582611 
	C178.475967,264.792938 201.131897,264.643524 223.786545,264.666260 
	C235.508743,264.678009 241.341248,270.483917 241.345245,282.089478 
	C241.353302,305.410431 241.224792,328.732452 241.425064,352.051666 
	C241.476334,358.021881 239.495605,362.642334 235.275070,366.680115 
	C229.980301,371.745544 224.885727,377.020203 219.453217,382.453094 
M168.471237,300.841919 
	C170.864334,305.509369 176.146301,301.176636 179.069443,304.185547 
	C179.034531,304.558258 179.118530,304.964142 178.953629,305.178589 
	C178.453552,305.828827 177.954254,306.556549 177.283188,306.986511 
	C170.381882,311.408600 167.742142,317.656647 169.052521,325.692261 
	C169.238068,326.830048 169.206665,328.024567 169.120483,329.181274 
	C168.858154,332.702698 170.553299,333.765442 173.911469,333.711975 
	C183.395096,333.560974 192.883133,333.718597 202.368652,333.648407 
	C213.976120,333.562500 212.586609,335.181427 212.670105,323.227844 
	C212.722046,315.791382 212.669846,315.799744 205.427139,315.300110 
	C204.480499,315.234833 203.390594,315.460297 202.581039,314.062317 
	C203.867035,310.648834 207.448044,309.070160 209.750702,306.386475 
	C211.304489,304.575592 212.739929,302.926544 212.676804,300.317047 
	C212.564133,295.660095 212.585373,290.997101 212.675598,286.339020 
	C212.728409,283.612183 211.578308,282.372345 208.836624,282.379089 
	C196.521622,282.409332 184.206406,282.411041 171.891495,282.364227 
	C169.338455,282.354523 168.296860,283.487762 168.336853,285.990784 
	C168.411240,290.649353 168.372375,295.309784 168.471237,300.841919 
z"/>
<path fill="#000000" opacity="1.000000" stroke="none" 
	d="
M297.999939,392.354797 
	C288.670471,392.351654 279.840912,392.372406 271.011597,392.337158 
	C263.570374,392.307465 262.864014,391.183777 265.975037,384.579468 
	C274.574982,366.322937 285.025879,349.075378 294.855927,331.487671 
	C300.380066,321.604034 305.708771,311.610565 311.058197,301.630463 
	C311.812195,300.223785 313.018890,298.896545 312.568237,296.350311 
	C307.250122,296.350311 301.832001,296.351959 296.413879,296.349884 
	C288.750610,296.346985 281.085663,296.245392 273.424744,296.377380 
	C269.591766,296.443390 267.944885,294.606293 267.750671,291.023804 
	C267.732635,290.691132 267.712921,290.358154 267.710114,290.025177 
	C267.572876,273.751953 266.771790,275.709229 281.255249,275.682312 
	C300.913177,275.645782 320.571259,275.667511 340.229279,275.678833 
	C349.208740,275.684021 349.841675,276.868408 345.689331,284.678986 
	C331.384399,311.586456 317.158875,338.536194 302.918213,365.477814 
	C302.073486,367.075958 301.361206,368.744141 300.631042,370.287262 
	C302.221283,372.376526 304.216064,371.610840 305.913239,371.622040 
	C318.407257,371.704498 330.902863,371.765533 343.395905,371.633270 
	C347.245941,371.592529 349.005615,372.880615 349.633850,376.890381 
	C351.801239,390.724640 350.619171,392.334137 336.983398,392.342438 
	C324.155579,392.350220 311.327759,392.350739 297.999939,392.354797 
z"/>
<path fill="#000000" opacity="1.000000" stroke="none" 
	d="
M356.118103,335.342529 
	C361.614532,324.652985 369.493134,317.684662 381.312164,315.646637 
	C392.827423,313.661011 402.494141,317.861053 411.247253,324.695770 
	C413.617950,322.539703 412.580414,318.487823 415.802643,318.015991 
	C420.562012,317.319000 425.433868,317.206024 430.187347,318.161194 
	C432.102783,318.546082 432.314392,320.504059 432.321075,322.238129 
	C432.335175,325.899933 432.289795,329.562561 432.351440,333.223480 
	C432.634308,350.026520 432.985504,366.828491 433.231110,383.632019 
	C433.370239,393.150909 433.137695,393.311157 423.390472,393.315674 
	C422.891113,393.315918 422.391785,393.315369 421.892426,393.314606 
	C413.172028,393.301270 413.172028,393.301270 412.311127,384.426697 
	C409.832764,384.597870 408.217224,386.406250 406.394318,387.613464 
	C397.829346,393.285980 388.441589,395.607849 378.348785,393.982086 
	C365.368561,391.891174 355.693909,381.778320 352.777588,367.879028 
	C350.457275,356.820160 351.385254,346.068878 356.118103,335.342529 
M373.357208,360.966278 
	C373.951935,362.336426 374.451263,363.757965 375.156769,365.068481 
	C379.938660,373.950592 389.418884,377.802673 399.396362,374.966309 
	C408.855682,372.277252 413.082703,365.811859 412.507111,354.922302 
	C412.436981,353.595093 412.209137,352.244537 412.365753,350.942261 
	C413.247894,343.606567 409.486908,338.764160 403.578949,335.532684 
	C396.071411,331.426270 388.270203,330.858490 380.984009,336.113007 
	C373.560974,341.466217 370.739258,350.688019 373.357208,360.966278 
z"/>
<path fill="#000000" opacity="1.000000" stroke="none" 
	d="
M534.858398,374.909576 
	C535.512817,374.619354 535.821716,374.493927 536.120178,374.347443 
	C544.350769,370.307739 548.819336,372.850037 550.108582,382.248016 
	C550.341675,383.947327 549.646057,385.086182 548.470337,386.163574 
	C530.758362,402.394958 493.114136,395.342377 482.628418,373.815857 
	C474.716888,357.573975 478.214478,336.156189 490.707275,324.344177 
	C511.014984,305.143097 542.339783,313.693359 549.827881,340.481476 
	C551.365601,345.982666 550.658630,347.573822 545.258972,349.579193 
	C531.697937,354.615631 518.096008,359.541779 504.523315,364.546906 
	C503.637329,364.873657 502.859741,365.494476 502.067352,365.957703 
	C506.464630,376.845856 520.223083,380.610321 534.858398,374.909576 
M504.320160,336.834412 
	C500.894379,341.416382 498.700409,346.384125 499.149933,352.935852 
	C509.691193,349.219513 519.727905,345.681091 529.801208,342.129700 
	C524.963135,330.390808 514.638000,328.294556 504.320160,336.834412 
z"/>
<path fill="#000000" opacity="1.000000" stroke="none" 
	d="
M582.373901,368.999939 
	C582.371826,375.492096 582.323120,381.484741 582.383728,387.476318 
	C582.417358,390.798157 580.954590,392.376709 577.582825,392.339386 
	C560.669800,392.152100 561.809814,394.606903 561.812622,377.630127 
	C561.817993,345.505035 561.800964,313.379944 561.808472,281.254852 
	C561.810364,273.185699 562.329529,272.649780 570.199280,272.667603 
	C583.610107,272.697998 582.365356,271.397339 582.375488,284.608063 
	C582.396912,312.572052 582.376343,340.536011 582.373901,368.999939 
z"/>
<path fill="#000000" opacity="1.000000" stroke="none" 
	d="
M447.815674,335.004883 
	C447.829315,330.676270 447.856995,326.846344 447.852203,323.016479 
	C447.847168,318.973358 449.658051,316.870728 453.886108,316.831116 
	C470.592804,316.674652 468.298126,316.390808 468.333313,330.363983 
	C468.389099,352.510925 468.598755,374.662354 468.235168,396.803528 
	C468.051514,407.989655 465.618530,418.619598 455.938171,426.103027 
	C452.670380,428.629211 450.084778,428.847412 447.495850,425.388580 
	C446.401703,423.926788 445.176575,422.541168 443.871704,421.263153 
	C440.083710,417.553101 439.613251,414.017548 443.040192,409.486847 
	C446.626648,404.745300 447.719543,398.915863 447.726044,392.952667 
	C447.746826,373.802979 447.784363,354.653259 447.815674,335.004883 
z"/>
<path fill="#000000" opacity="1.000000" stroke="none" 
	d="
M469.321838,288.152710 
	C468.830719,295.581299 464.497528,300.253021 458.449524,300.306854 
	C452.881805,300.356415 448.195557,295.914307 447.659943,290.079346 
	C447.059906,283.542664 450.662048,278.432953 456.707001,277.245972 
	C462.570435,276.094574 467.513214,280.206604 469.321838,288.152710 
z"/>
</svg>